/* XPM */
static char * C:\Users\crime\Shared\ios\xfwm4\close_active_xpm[] = {
"20 18 28 1",
" 	c None",
".	c #F5F5F5",
"+	c #E3B2B4",
"@	c #E07C7F",
"#	c #E1545B",
"$	c #E0545B",
"%	c #E07D81",
"&	c #E4B4B5",
"*	c #E0565B",
"=	c #EE4C52",
"-	c #F25157",
";	c #EE4B52",
">	c #DF595F",
",	c #E4434C",
"'	c #E3454E",
")	c #E0545A",
"!	c #E0585E",
"~	c #E2B1B3",
"{	c #E3B4B5",
"]	c #E07A7D",
"^	c #E07F82",
"/	c #E15159",
"(	c #E1595F",
"_	c #E2B3B6",
":	c #E0575D",
"<	c #E3B2B3",
"[	c #E07D80",
"}	c #E3B3B4",
"....................",
"....................",
".......+@#$%&.......",
"......*=----;>......",
".....,--------'.....",
"....)----------!....",
"...~=----------;{...",
"...]------------^...",
".../------------(...",
".../------------(...",
"...]------------^...",
"...~=----------;_...",
"....:---------->....",
".....,--------'.....",
"......*=----;>......",
".......<@#$[}.......",
"....................",
"...................."};
