/* XPM */
static char * C:\Users\crime\Shared\ios\xfwm4\top_left_active_xpm[] = {
"8 29 2 1",
" 	c None",
".	c #F5F5F5",
"    ....",
"  ......",
" .......",
" .......",
"........",
"........",
"........",
"........",
"........",
"........",
"........",
"........",
"........",
"........",
"........",
"........",
"........",
"........",
"........",
"........",
"........",
"........",
"........",
"........",
"........",
"........",
"........",
"........",
"........"};
