/* XPM */
static char * unfocused_xpm[] = {
"20 18 10 1",
" 	c None",
".	c #F5F5F5",
"+	c #C3C3C3",
"@	c #BEBEBE",
"#	c #C2C2C2",
"$	c #BDBDBD",
"%	c #C5C5C5",
"&	c #C8C8C8",
"*	c #BFBFBF",
"=	c #C7C7C7",
"....................",
"....................",
"........+@@#........",
"......$%&&&&%*......",
".....*&&&&&&&=*.....",
"....@&&&&&&&&&&@....",
"....%&&&&&&&&&&%....",
"...#&&&&&&&&&&&&+...",
"...@&&&&&&&&&&&&@...",
"...@&&&&&&&&&&&&@...",
"...#&&&&&&&&&&&&+...",
"....%&&&&&&&&&&%....",
"....$&&&&&&&&&=@....",
".....*&&&&&&&=*.....",
"......$%&&&&%*......",
"........+@@#........",
"....................",
"...................."};
